<?xml version="1.0" standalone="no"?><!DOCTYPE svg PUBLIC "-//W3C//DTD SVG 1.1//EN" "http://www.w3.org/Graphics/SVG/1.1/DTD/svg11.dtd"><svg t="1739931337004" class="icon" viewBox="0 0 1656 1024" version="1.1" xmlns="http://www.w3.org/2000/svg" p-id="2355" xmlns:xlink="http://www.w3.org/1999/xlink" width="323.4375" height="200"><path d="M1498.804706 1022.795294a709.948235 709.948235 0 1 0-1373.590588 0z" fill="#FAFCFF" p-id="2356"></path><path d="M1379.84 1022.795294a595.727059 595.727059 0 1 0-1135.585882 0z" fill="#F0F7FE" p-id="2357"></path><path d="M1157.722353 1022.795294a389.948235 389.948235 0 1 0-691.350588 0z" fill="#E7EEFC" p-id="2358"></path><path d="M1213.364706 893.063529H403.651765a15.058824 15.058824 0 0 1 0-30.117647h809.712941a15.058824 15.058824 0 0 1 0 30.117647zM1357.477647 893.063529h-76.197647a15.058824 15.058824 0 0 1 0-30.117647h76.197647a15.058824 15.058824 0 0 1 0 30.117647zM1587.877647 1024h-76.197647a15.058824 15.058824 0 1 1 0-30.117647h76.197647a15.058824 15.058824 0 0 1 0 30.117647zM136.583529 1024H60.235294a15.058824 15.058824 0 0 1 0-30.117647h76.348235a15.058824 15.058824 0 0 1 0 30.117647zM341.534118 893.063529H265.336471a15.058824 15.058824 0 1 1 0-30.117647h76.197647a15.058824 15.058824 0 0 1 0 30.117647zM574.795294 1024h-21.534118a15.058824 15.058824 0 0 1 0-30.117647h21.534118a15.058824 15.058824 0 0 1 0 30.117647zM1424.865882 1024H636.310588a15.058824 15.058824 0 1 1 0-30.117647h788.555294a15.058824 15.058824 0 0 1 0 30.117647zM498.447059 1024H210.296471a15.058824 15.058824 0 0 1 0-30.117647H498.447059a15.058824 15.058824 0 0 1 0 30.117647zM1090.484706 287.472941a11.971765 11.971765 0 0 1 7.529412 6.174118 90.352941 90.352941 0 0 0 61.515294 43.821176 0.978824 0.978824 0 1 1 0 1.882353c-15.811765 4.592941-32.451765 0-47.134118-6.249412a71.378824 71.378824 0 0 1-33.28-24.922352 14.456471 14.456471 0 0 1-2.032941-14.305883 11.52 11.52 0 0 1 13.101176-6.4z m0 0" fill="#8A98B6" p-id="2359"></path><path d="M1039.510588 297.185882a113.92 113.92 0 0 0 100.592941 54.738824 39.378824 39.378824 0 0 0 23.265883-7.002353c9.863529-7.529412 14.381176-19.350588 23.567059-27.331765a78.004706 78.004706 0 0 1 23.341176-13.552941 70.625882 70.625882 0 0 1 49.995294 0.752941 73.336471 73.336471 0 0 1 35.162353 30.795294 181.308235 181.308235 0 0 1 12.122353 28.988236c4.216471 9.712941 14.381176 14.381176 21.534118 21.684706 0.451765-2.183529 1.581176-6.023529 4.517647-5.12a8.432941 8.432941 0 0 1 2.183529 10.390588 22.588235 22.588235 0 0 1 16.188235-3.990588c1.656471 0.527059 0.602353 2.409412 0 3.237647a19.727059 19.727059 0 0 1-14.531764 5.49647 6.174118 6.174118 0 0 0 1.204706 1.882353 295.002353 295.002353 0 0 1 40.432941 48.26353 74.24 74.24 0 0 1 11.821176 28.912941 57.374118 57.374118 0 0 1-7.529411 32.075294 58.503529 58.503529 0 0 1-109.70353-31.548235 67.087059 67.087059 0 0 1 10.24-26.654118 293.12 293.12 0 0 1 44.42353-53.38353 33.882353 33.882353 0 0 0-25.976471 4.367059 70.098824 70.098824 0 0 0-21.308235 22.588236 269.402353 269.402353 0 0 1-43.745883 51.57647 186.202353 186.202353 0 0 1-135.002353 43.821177 183.792941 183.792941 0 0 1-106.541176-44.122353 3.84 3.84 0 0 1 3.237647-6.174118 132.442353 132.442353 0 0 0 57.449412-9.035294 66.258824 66.258824 0 0 0 23.491764-16.263529 10.390588 10.390588 0 0 0 2.409412-10.089412 14.531765 14.531765 0 0 0-7.529412-7.529412 112.037647 112.037647 0 0 1-52.329411-73.788235 119.567059 119.567059 0 0 1 1.204706-52.178824 8.658824 8.658824 0 0 1 15.585882-1.882353" fill="#157EFB" p-id="2360"></path><path d="M1287.529412 343.717647a12.724706 12.724706 0 1 0 10.014117 15.887059 12.8 12.8 0 0 0-10.014117-15.887059z" fill="#FFFFFF" p-id="2361"></path><path d="M836.743529 457.336471m-30.042353 0a30.042353 30.042353 0 1 0 60.084706 0 30.042353 30.042353 0 1 0-60.084706 0Z" fill="#8A98B6" p-id="2362"></path><path d="M666.729412 457.336471m-30.042353 0a30.042353 30.042353 0 1 0 60.084706 0 30.042353 30.042353 0 1 0-60.084706 0Z" fill="#8A98B6" p-id="2363"></path><path d="M496.715294 457.336471m-30.042353 0a30.042353 30.042353 0 1 0 60.084706 0 30.042353 30.042353 0 1 0-60.084706 0Z" fill="#8A98B6" p-id="2364"></path><path d="M1295.887059 726.211765h124.912941a36.743529 36.743529 0 1 1 0-73.487059h173.176471a36.743529 36.743529 0 0 1 0 73.487059h-107.444706a36.743529 36.743529 0 0 1 0 73.487059h-190.644706a36.743529 36.743529 0 0 1 0-73.487059z" fill="#FFFFFF" p-id="2365"></path><path d="M1486.531765 807.228235h-190.644706a44.272941 44.272941 0 0 1 0-88.545882h91.708235a44.197647 44.197647 0 0 1 33.204706-73.487059h173.176471a44.272941 44.272941 0 0 1 0 88.545882h-73.86353a44.197647 44.197647 0 0 1-33.204706 73.487059z m-190.644706-73.487059a29.214118 29.214118 0 0 0 0 58.428236h190.644706a29.214118 29.214118 0 0 0 0-58.428236v-15.058823h107.068235a29.214118 29.214118 0 0 0 0-58.428235h-173.176471a29.214118 29.214118 0 1 0 0 58.428235v15.058823z" fill="#8A98B6" p-id="2366"></path><path d="M83.877647 537.825882H173.176471a26.202353 26.202353 0 1 1 0-52.705882h122.804705a26.202353 26.202353 0 1 1 0 52.705882H219.708235a26.202353 26.202353 0 0 1 0 52.705883h-135.529411a26.202353 26.202353 0 0 1 0-52.705883z" fill="#FFFFFF" p-id="2367"></path><path d="M219.708235 597.76h-135.529411a33.731765 33.731765 0 0 1 0-67.764706h60.988235a33.656471 33.656471 0 0 1 28.084706-52.705882h122.729411a33.731765 33.731765 0 1 1 0 67.764706h-48.188235a33.731765 33.731765 0 0 1-28.084706 52.705882z m-135.529411-52.705882a18.672941 18.672941 0 0 0 0 37.647058h135.529411a18.672941 18.672941 0 1 0 0-37.647058v-15.058824h76.272941a18.672941 18.672941 0 1 0 0-37.647059H173.176471a18.672941 18.672941 0 1 0 0 37.647059v15.058824z" fill="#8A98B6" p-id="2368"></path></svg>