<?xml version="1.0" standalone="no"?><!DOCTYPE svg PUBLIC "-//W3C//DTD SVG 1.1//EN" "http://www.w3.org/Graphics/SVG/1.1/DTD/svg11.dtd"><svg t="1739931210861" class="icon" viewBox="0 0 1024 1024" version="1.1" xmlns="http://www.w3.org/2000/svg" p-id="2032" xmlns:xlink="http://www.w3.org/1999/xlink" width="200" height="200"><path d="M442.65006 497.478004l0.91976-26.803864-16.473932-5.385709a161.258539 161.258539 0 0 0-4.41485-26.924455l13.980359-10.199122-9.483752-25.172822-17.291497 1.387816a159.398579 159.398579 0 0 0-14.307386-23.151393l8.952336-14.912383-18.39521-19.601118-15.451976 7.893589A167.142962 167.142962 0 0 0 348.487026 338.61493l2.493573-17.134116-24.526946-11.096399-11.241517 13.136224a165.139928 165.139928 0 0 0-26.570859-6.119473l-4.087824-16.786651-26.938762-0.919761-5.314172 16.461669a164.796551 164.796551 0 0 0-26.959202 4.386236l-10.383073-13.869988-25.221877 9.401996 1.389861 17.258794a163.831824 163.831824 0 0 0-23.198404 14.4198l-15.043193-9.136287-19.723753 18.356375 7.90994 15.503074a158.321437 158.321437 0 0 0-15.942515 22.113086l-17.148423-2.571242-11.200638 24.477893 13.24455 11.200638a159.938172 159.938172 0 0 0-6.131736 26.515673L86.866267 458.476072l-0.91976 26.803864 16.555689 5.385709a157.593804 157.593804 0 0 0 4.394411 26.904016l-13.980359 10.199121 9.504191 25.193262 17.291497-1.38986c4.087824 8.118419 8.876711 15.864846 14.307385 23.153437l-8.972774 14.912383 18.395209 19.601118 15.451977-7.893589a165.01525 165.01525 0 0 0 22.156008 15.973174l-2.57533 17.113676 24.526946 11.116839 11.302835-13.136224a167.331002 167.331002 0 0 0 26.570858 6.221669l4.087824 16.78665 26.938763 0.919761 5.314171-16.461669a166.885429 166.885429 0 0 0 26.979641-4.386235l10.219561 13.869988 25.221876-9.401996-1.308104-17.258795a170.599218 170.599218 0 0 0 23.198404-14.421844l14.859241 8.935984 19.723753-18.358419-7.90994-15.503074a157.851337 157.851337 0 0 0 15.942514-22.113086l17.148424 2.571242 11.200638-24.477893-13.244551-11.221077a157.334228 157.334228 0 0 0 6.233933-26.515673l17.168862-4.120527z m-181.478962 86.835609c-43.10202-1.453222-81.081996-28.680176-96.223298-68.982036-15.143345-40.299816-4.463904-85.735984 27.055266-115.113134 31.517126-29.379194 77.668663-36.913054 116.921996-19.086052 39.255377 17.827002 63.880431 57.501381 62.392463 100.515513-2.019385 58.701158-51.326723 104.660567-110.146427 102.665709zM914.650699 439.424766l6.765349-6.303425-2.677525-5.324391c2.043912-2.385246 3.883433-4.938092 5.498124-7.62788l5.927345 0.876838 3.822116-8.445445-4.537485-3.854818c0.97699-2.986156 1.696447-6.04998 2.146108-9.158771l5.825149-1.449133 0.286148-9.258923-5.682076-1.839521a57.66285 57.66285 0 0 0-1.512495-9.2998l4.803194-3.568671-3.27026-8.670275-5.947784 0.4701a57.605621 57.605621 0 0 0-4.966707-7.997829l3.086308-5.099561-6.356567-6.771481-5.314172 2.712272a57.718036 57.718036 0 0 0-7.644231-5.48586l0.858443-5.915082-8.441358-3.856862-3.883433 4.549748a56.980184 56.980184 0 0 0-9.177165-2.039824l-1.451178-5.794491-9.279361-0.347465-1.85996 5.712734a55.287824 55.287824 0 0 0-9.279362 1.510451l-3.556407-4.795018-8.707066 3.243689 0.490539 5.95596a54.345581 54.345581 0 0 0-8.012136 4.958531l-5.150658-3.080176-6.785789 6.301381 2.636647 5.201757a54.263824 54.263824 0 0 0-5.518563 7.629924l-5.906906-0.878882-3.842555 8.445445 4.557924 3.877301a53.963369 53.963369 0 0 0-2.043912 9.136288l-5.845589 1.451177-0.286147 9.258923 5.702514 1.835433c0.233006 3.137405 0.731721 6.250283 1.492056 9.301844l-4.823632 3.550275 3.270259 8.668232 5.968224-0.449661a57.605621 57.605621 0 0 0 4.966706 7.997829l-3.086307 5.099561 6.356567 6.771481 5.314171-2.712272a55.898954 55.898954 0 0 0 7.644232 5.487904l-0.878882 5.894643 8.461796 3.854818 3.883433-4.527265a59.253014 59.253014 0 0 0 9.177166 2.039824l1.451178 5.792447 9.279361 0.347465 1.85996-5.712734a55.001677 55.001677 0 0 0 9.279361-1.508407l3.556407 4.792974 8.707066-3.243689-0.4701-5.95596a54.570411 54.570411 0 0 0 7.991697-4.956487l5.13022 3.20281zM866.373493 400.402395a13.177102 13.177102 0 0 1-2.36685-14.47703 13.226156 13.226156 0 0 1 12.498523-7.717812 13.222068 13.222068 0 0 1 11.924183 8.572168 13.179146 13.179146 0 0 1-3.374499 14.274682 13.21798 13.21798 0 0 1-18.763113-0.654052h0.081756zM634.634731 600.431904l-13.759617-9.49806a74.627321 74.627321 0 0 0-5.534914-14.303297l3.525748-13.814802-19.958802-21.330268-14.051896 2.563066a74.978874 74.978874 0 0 0-13.931306-6.493509l-8.543553-14.358483-29.274954-0.995385-9.500104 13.733046a75.3059 75.3059 0 0 0-14.317604 5.512431l-13.83933-3.519617-21.371146 19.922012 2.569198 14.000798a74.62119 74.62119 0 0 0-6.493509 13.931306l-14.385054 8.527201-0.997429 29.219769 13.77188 9.483752a72.636551 72.636551 0 0 0 5.522651 14.370747l-3.566627 13.694211 19.960847 21.330268 13.957876-2.550803a76.166387 76.166387 0 0 0 14.025325 6.509861l8.529246 14.329868 29.274954 1.009693 9.48784-13.73509a76.039665 76.039665 0 0 0 14.450459-5.522651l13.757573 3.505309 21.385453-19.922012-2.569197-14.000798a73.519521 73.519521 0 0 0 6.493509-13.945613l14.385053-8.527201 0.99743-29.125749z m-91.050156 44.140328c-18.047745-0.615218-32.179353-15.717685-31.56618-33.730683 0.615218-18.012998 15.744255-32.118036 33.794044-31.506906 18.047745 0.613174 32.183441 15.709509 31.574355 33.722507-0.633613 18.015042-15.762651 32.115992-33.814483 31.515082h0.012264zM703.207984 556.87818h-0.143074l-35.400559-1.205909a4.251337 4.251337 0 0 1-3.556407-2.03778l-9.54507-16.012008a97.872735 97.872735 0 0 1-14.87968-6.89616L624.41517 533.358882a4.298347 4.298347 0 0 1-3.924312-1.30606l-24.179481-25.82483a4.277908 4.277908 0 0 1-1.021956-4.079649l3.862994-15.11473a92.597397 92.597397 0 0 1-5.845589-15.237365l-15.390658-10.607905a4.279952 4.279952 0 0 1-1.85996-3.691305l1.205908-35.329022a4.363752 4.363752 0 0 1 2.043912-3.550275l16.085589-9.524631a92.360303 92.360303 0 0 1 6.887984-14.789749l-2.820599-15.36c-0.267752-1.451178 0.22483-2.935058 1.308104-3.936575l25.875928-24.112032a4.318786 4.318786 0 0 1 4.087824-1.040351l15.206707 3.877302a93.786954 93.786954 0 0 1 15.227146-5.855809l10.628343-15.36a4.089868 4.089868 0 0 1 3.699481-1.855872l35.38012 1.224303a4.312655 4.312655 0 0 1 3.576846 2.039825l9.54507 16.032447c5.10978 1.872224 10.045828 4.177756 14.757046 6.894116l15.451976-2.834907a4.277908 4.277908 0 0 1 3.924311 1.30606l24.179481 25.824831c1.024 1.091449 1.410299 2.634603 1.021956 4.079648l-3.883433 15.155609a94.919281 94.919281 0 0 1 5.886467 15.196487l15.37022 10.607904c1.214084 0.829828 1.915146 2.223776 1.85996 3.691306l-1.205908 35.308583a4.404631 4.404631 0 0 1-2.043912 3.570714l-16.085589 9.524631a94.784383 94.784383 0 0 1-6.887984 14.769309l2.820598 15.380439c0.267752 1.443002-0.22483 2.922794-1.308103 3.916136l-26.039441 24.132471a4.298347 4.298347 0 0 1-4.087825 1.019912l-15.12495-3.856862a97.183936 97.183936 0 0 1-15.308902 5.855808l-10.526148 15.339561a4.353533 4.353533 0 0 1-3.556407 2.039825z m-32.886547-9.729022l30.658683 1.038307 10.219561-14.66507a4.087824 4.087824 0 0 1 2.432255-1.714842 89.715481 89.715481 0 0 0 16.657884-6.383138c0.927936-0.447617 1.982595-0.555944 2.984112-0.306587l14.307385 3.650427 22.483034-20.909221-2.575329-14.746826a4.255425 4.255425 0 0 1 0.531417-2.99842 84.738555 84.738555 0 0 0 7.46028-15.971129c0.324982-1.009693 1.007649-1.866092 1.921277-2.407729l15.390659-9.097453 1.042395-30.597365-14.716168-10.199122a4.304479 4.304479 0 0 1-1.655569-2.182898v-0.347465a87.608208 87.608208 0 0 0-6.377006-16.318595 4.296303 4.296303 0 0 1-0.327026-3.018858l3.679042-14.442284-20.950099-22.438068-14.695729 2.693877a4.361709 4.361709 0 0 1-2.984112-0.531418 86.537198 86.537198 0 0 0-16.024271-7.484806 4.664208 4.664208 0 0 1-0.919761-0.408782 4.288128 4.288128 0 0 1-1.430738-1.469573l-9.218044-15.400878-30.658683-1.058747-10.219561 14.705948a4.41485 4.41485 0 0 1-2.534451 1.733238c-5.692295 1.553373-11.212902 3.679042-16.473932 6.344303a4.259513 4.259513 0 0 1-3.004551 0.327026l-14.470898-3.670866-22.483034 20.909221 2.697964 14.624192c0.159425 0.921804 0.024527 1.872224-0.388343 2.712271l-0.204391 0.347465a84.697677 84.697677 0 0 0-7.46028 16.032448 4.326962 4.326962 0 0 1-1.880399 2.285093l-15.390659 9.115849-1.042395 30.599409 14.736607 10.199122c0.840048 0.572295 1.449134 1.426651 1.716886 2.407728a84.591393 84.591393 0 0 0 6.356567 16.56182c0.145118 0.302499 0.261621 0.615218 0.347465 0.9402 0.153293 0.670403 0.153293 1.369421 0 2.039824l-3.679042 14.278771 20.9501 22.438068 14.593533-2.673437a4.300391 4.300391 0 0 1 2.963673 0.531417 88.501397 88.501397 0 0 0 16.126467 7.484806 4.087824 4.087824 0 0 1 2.391377 1.896751l9.115848 15.543952z m18.947066-38.69739h-2.268743c-35.365812-0.621349-63.61881-29.573365-63.308135-64.871728 0.312719-35.298363 29.072607-63.749621 64.442507-63.749621s64.129788 28.451257 64.442507 63.749621c0.310675 35.298363-27.942323 64.250379-63.308136 64.873772z m0-120.533588c-30.903952 0.531417-55.602587 25.826874-55.336878 56.673596 0.265709 30.846723 25.397653 55.712958 56.307736 55.712959s56.042028-24.866236 56.307737-55.712959c0.265709-30.846723-24.430882-56.14218-55.336878-56.673596h-1.941717z" fill="#EBEBEB" p-id="2033"></path><path d="M784.739641 302.552144l-14.67529-3.91818-3.924311-14.644631 5.743393-5.712734 6.04998 12.504654 12.549621 6.058156z" fill="#E0E0E0" p-id="2034"></path><path d="M785.638962 292.75976a6.812359 6.812359 0 0 0-3.065868-11.413205 6.847106 6.847106 0 0 0-6.601837 1.76594l7.296767-10.93493 9.7699 4.938092 2.146108 10.199121-9.54507 5.444982z" fill="#E0E0E0" p-id="2035"></path><path d="M770.718403 279.460024l10.750978-10.730539 14.634411 3.897741 3.944751 14.626235-10.750978 10.730539-14.65485-3.938619-3.924312-14.585357z m19.519361 8.772471a6.824623 6.824623 0 0 0-0.004087-9.663617 6.857325 6.857325 0 0 0-9.679968 0 6.824623 6.824623 0 0 0-0.004088 9.663617 6.898204 6.898204 0 0 0 9.688143-0.040878v0.040878z" fill="#F0F0F0" p-id="2036"></path><path d="M185.423713 692.955721l7.869061-2.121581 2.10523-7.854755-3.065868-3.059736-3.249821 6.712207-6.74491 3.243689z" fill="#E0E0E0" p-id="2037"></path><path d="M184.974052 687.692647a3.666778 3.666778 0 0 1 0.165557-5.015761 3.685174 3.685174 0 0 1 5.02598-0.165557l-3.903872-5.853764-5.375489 2.610076-1.144591 5.508343 5.232415 2.916663z" fill="#E0E0E0" p-id="2038"></path><path d="M192.945309 680.532822l-5.763832-5.753612-7.869062 2.039824-2.043912 7.854754 5.661637 5.812887 7.869062-2.039825 2.146107-7.914028z m-10.46483 4.711218a3.666778 3.666778 0 0 1 1.549285-6.327952c1.334675-0.327026 2.738842 0.116503 3.642252 1.146635a3.666778 3.666778 0 0 1-0.165557 5.01576 3.685174 3.685174 0 0 1-5.02598 0.165557zM157.09509 262.448543l6.540519 6.526211a4.380104 4.380104 0 0 0 6.131736 0 4.380104 4.380104 0 0 0 0-6.119473l-6.52008-6.505772a4.400543 4.400543 0 0 0-6.131736 0 4.359665 4.359665 0 0 0-0.020439 6.099034z" fill="#F0F0F0" p-id="2039"></path><path d="M152.496287 246.2301a9.097453 9.097453 0 0 1 11.139322 6.109253 9.07497 9.07497 0 0 1-5.855809 11.257869 9.099497 9.099497 0 0 1-11.415249-5.575793 9.34681 9.34681 0 0 1 0.607042-7.168 9.377469 9.377469 0 0 1 5.524694-4.621285z" fill="#E0E0E0" p-id="2040"></path><path d="M146.329804 259.560495l-0.946331-2.630515 19.427385-6.965653 0.946332 2.630515z" fill="#F0F0F0" p-id="2041"></path><path d="M264.032575 437.709924h-0.367904c-9.197605-3.568671-14.695729-7.03719-17.557206-11.219034a10.526148 10.526148 0 0 1-6.601836-0.897277 13.27521 13.27521 0 0 1-5.702515-5.344831 5.199713 5.199713 0 0 1-4.946268 0.756248 12.545533 12.545533 0 0 1-6.131736-4.915609 4.564056 4.564056 0 0 1-3.188503 0.876838c-6.131737-0.490539-14.307385-12.565972-14.90012-25.416047a1.062834 1.062834 0 0 1 0.981078-1.083274 1.021956 1.021956 0 0 1 1.062834 0.981078c0.572295 12.238946 8.400479 23.110515 13.04016 23.478419 0.682667 0.075625 1.365333-0.122635 1.900838-0.551856a25.005222 25.005222 0 0 1-2.043912-19.214819c1.757764-6.119473 3.311138-8.527202 5.191537-8.159297 3.515529 0.878882 3.045429 14.27877 1.185469 23.028759a12.508743 12.508743 0 0 1-1.716886 4.447552c1.205908 2.017341 3.02499 3.597285 5.191537 4.508871 1.179337 0.447617 2.514012 0.169645 3.413333-0.71537-1.594251-3.936575-2.043912-9.32024 0.24527-16.175521 2.861477-9.034092 4.087824-9.279361 4.721437-9.442874a1.348982 1.348982 0 0 1 1.308103 0.447617c1.900838 2.14202-0.367904 16.175521-2.738842 23.110515a10.190946 10.190946 0 0 1-1.144591 2.36685 11.351888 11.351888 0 0 0 5.089342 5.099561 9.030004 9.030004 0 0 0 4.660119 0.878882c-0.183952-0.388343-0.347465-0.776687-0.510978-1.185469-1.614691-4.384192-0.817565-9.422435 2.432256-15.460151 2.146108-3.979497 3.903872-5.855808 5.539002-5.855809a2.268743 2.268743 0 0 1 2.043912 1.346938c1.778204 3.284567 0.490539 14.115257-3.02499 19.498923a8.171561 8.171561 0 0 1-3.311138 2.857389c2.738842 3.591154 7.950818 6.751042 16.351298 9.974291a1.001517 1.001517 0 0 1 0.592734 1.30606 1.042395 1.042395 0 0 1-1.062834 0.674491zM252.423154 404.11414s-1.16503 0-3.74036 4.795018c-2.963673 5.465421-3.71992 9.974291-2.30962 13.767792 0.171689 0.4701 0.37608 0.925892 0.613173 1.367377a5.884423 5.884423 0 0 0 2.697964-2.244215c2.861477-4.365796 4.230898-13.340615 3.168064-16.850012-0.143074-0.713325-0.429222-0.83596-0.429221-0.83596z m-14.67529-8.586475a47.531178 47.531178 0 0 0-2.738842 7.200702 23.169788 23.169788 0 0 0-0.776687 13.361054l0.183952-0.531417a66.764391 66.764391 0 0 0 3.392895-20.030339h-0.061318z m-13.448942-6.42606c-0.347465 0.306587-1.348982 1.590164-2.759281 6.569134a22.885685 22.885685 0 0 0 1.471616 16.807089c0.419002-0.911585 0.727633-1.87018 0.919761-2.855345 2.186986-10.01517 1.573812-19.071745 0.429222-20.520878h-0.061318zM341.742116 544.639234a18.423824 18.423824 0 0 1-9.32024-2.428168 1.038307 1.038307 0 0 1-0.367904-1.408256 1.001517 1.001517 0 0 1 1.38986-0.347465c7.296766 4.265645 16.719202 1.287665 18.660918-1.833389a1.792511 1.792511 0 0 0 0.306587-1.367377 16.621094 16.621094 0 0 1-10.485269-2.97798c-5.211976-3.243689-5.620758-4.222723-5.57988-4.997365 0.020439-0.453749 0.286148-0.860487 0.69493-1.062835 2.043912-1.017868 11.261956 3.204854 15.104511 5.733174 0.45988 0.306587 0.885014 0.662228 1.267225 1.062834a7.257932 7.257932 0 0 0 3.883433-2.328016c0.570251-0.668359 0.981078-1.455265 1.205909-2.303489h-0.408783c-3.270259 0.327026-6.540519-1.083273-10.035609-4.304479-2.411816-2.203337-3.331577-3.732184-3.02499-4.936048a1.839521 1.839521 0 0 1 1.471617-1.326499c2.820599-0.715369 9.810778 2.264655 12.651817 5.385709 0.633613 0.678579 1.083273 1.506363 1.308103 2.405684 2.677525-1.242699 5.498124-4.079649 8.829701-8.709109a1.021956 1.021956 0 0 1 1.430738-0.24527 1.038307 1.038307 0 0 1 0.24527 1.428695c-3.862994 5.383665-7.092375 8.445445-10.321757 9.688144a7.519553 7.519553 0 0 1-1.778203 4.079648 9.401996 9.401996 0 0 1-4.455729 2.875785c0.196216 0.985166-0.01022 2.005078-0.572295 2.83695-1.716886 2.916663-6.663154 5.079122-12.09996 5.079122z m-1.819082-14.156136c0.69493 0.510978 1.676008 1.181381 3.086307 2.039824a16.371737 16.371737 0 0 0 7.358084 2.691832 50.472367 50.472367 0 0 0-10.444391-4.731656z m7.133253-8.670276c0.586603 1.103713 1.402124 2.070483 2.391378 2.834907 3.02499 2.796072 5.784271 4.079649 8.441357 3.754666h0.654052a3.689261 3.689261 0 0 0-0.899322-1.694403c-2.861477-3.22325-9.156727-5.222196-10.587465-4.89517z" fill="#263238" p-id="2042"></path><path d="M368.803513 541.843162l-31.844152 5.774052-28.921357-157.516136-61.44 11.139321-100.151697 177.462675 10.750978 58.564215 128.459881-23.274028 8.788822 47.894994 61.44-11.180199-8.788822-47.89295 31.844151-5.774052-10.137804-55.197892z m-161.162475 29.313788l53.141716-92.957126 14.818364 80.656863-67.96008 12.300263zM625.294052 379.411417a119.820263 119.820263 0 0 0-6.540519-29.005158 94.418523 94.418523 0 0 0-14.307385-24.866235 82.480032 82.480032 0 0 0-25.957685-21.134052c-10.900184-5.968224-25.358818-10.123497-43.371816-12.461732-37.403593-4.868599-66.54978 1.753677-87.438563 19.866826-20.888782 18.115194-34.650443 52.792208-41.287026 104.033086a283.648 283.648 0 0 0-2.043912 57.807968c1.363289 17.67984 4.619242 31.909557 9.7699 42.693237a89.261733 89.261733 0 0 0 29.943313 36.269222c12.903218 9.042267 30.617804 15.020711 53.141717 17.929197 40.034108 5.209932 69.717844-2.467002 89.053253-23.028758 19.335409-20.561756 32.144607-55.308263 38.425549-104.235433a263.595178 263.595178 0 0 0 0.613174-63.868168z" fill="#2C6AEB" p-id="2043"></path><path d="M515.617725 549.595721c-4.925828-0.163513-10.219561-0.613174-15.554172-1.30606-18.722236-2.426124-33.193134-7.159824-43.044791-14.05394a66.649932 66.649932 0 0 1-22.483033-27.333238l-0.102196-0.22483c-3.924311-8.159297-6.499641-19.887265-7.623792-34.677014-1.191601-17.763641-0.560032-35.60495 1.880399-53.239825 7.296766-56.54483 22.360399-80.145884 33.704111-89.977101 13.244551-11.464303 31.128782-16.645621 54.633773-15.8301 4.823633 0.163513 9.933413 0.592735 15.186267 1.267225 15.084072 2.03778 27.040958 5.301908 35.502755 9.912974a60.867705 60.867705 0 0 1 19.028822 15.278244 71.870084 71.870084 0 0 1 10.93493 18.908231 97.296351 97.296351 0 0 1 5.232416 23.560176c2.17881 19.478483 1.982595 39.151138-0.592735 58.584655-5.661637 43.93798-16.617006 74.819449-32.539082 91.792096-11.813812 12.565972-29.534531 18.358419-54.184112 17.420263l0.02044-0.081756z" fill="#263238" p-id="2044"></path><path d="M555.617086 380.004152l0.265708-7.73212-4.762315-1.549285c-0.204391-2.616208-0.627481-5.207888-1.267226-7.750515l4.087825-2.980024-2.738842-7.259976-4.987146 0.408782a46.531705 46.531705 0 0 0-4.087825-6.671329l2.57533-4.304479-5.314172-5.651418-4.455728 2.285094a47.353357 47.353357 0 0 0-6.377006-4.609022l0.715369-4.938092-7.071936-3.200766-3.229381 3.793501a47.623154 47.623154 0 0 0-7.664671-1.794555l-1.205908-4.835896-7.766867-0.265709-1.532934 4.733701c-2.618251 0.208479-5.216064 0.633613-7.766866 1.265182l-3.004551-4.079649-7.276327 2.712271 0.408782 4.976926a46.903697 46.903697 0 0 0-6.683593 4.079649l-4.292215-2.589637-5.682076 5.283513 2.289182 4.465949a44.430563 44.430563 0 0 0-4.598803 6.385181l-4.946267-0.756247-3.229381 7.059672 3.822115 3.22325a43.639569 43.639569 0 0 0-1.798642 7.668758l-4.864511 1.224304-0.265709 7.709636 4.762315 1.55133c0.200303 2.622339 0.623393 5.222196 1.267226 7.770954l-4.087824 2.957541 2.738842 7.26202 4.987146-0.408783a43.862355 43.862355 0 0 0 4.087824 6.67133l-2.595769 4.304479 5.314172 5.649373 4.455729-2.262611c1.994858 1.702579 4.128703 3.239601 6.377006 4.588583l-0.735809 4.936048 7.071936 3.20281 3.249821-3.773062c2.50788 0.803257 5.079122 1.398036 7.68511 1.774116l1.205908 4.854292 7.746427 0.265708 1.532934-4.752096a46.278259 46.278259 0 0 0 7.787305-1.265181l2.963673 4.079648 7.276327-2.712271-0.388343-4.956487a50.893413 50.893413 0 0 0 6.683593-4.079649l4.292215 2.569198 5.682076-5.283513-2.268742-4.465948a44.103537 44.103537 0 0 0 4.578363-6.364743l4.946268 0.735809 3.229381-7.059673-3.801677-3.22325c0.813477-2.493573 1.408255-5.052551 1.778204-7.648319l4.88495-1.226347z m-52.324152 25.027704c-16.903154-0.615218-30.112958-14.777485-29.520223-31.647936 0.592735-16.870451 14.761134-30.074124 31.666331-29.50796 16.905198 0.56412 30.157924 14.687553 29.616287 31.558004a30.570794 30.570794 0 0 1-9.718802 21.385453 30.693429 30.693429 0 0 1-22.043593 8.212439z" fill="#2C6AEB" p-id="2045"></path><path d="M587.87002 521.935457l0.572295-5.222196-3.147624-1.265181a32.573828 32.573828 0 0 0-0.449661-5.303952l2.841038-1.814994-1.451178-5.038244h-3.392894a30.209022 30.209022 0 0 0-2.432255-4.711217l1.921277-2.773589-3.27026-4.079649-3.127185 1.304016a32.829317 32.829317 0 0 0-4.087824-3.425597l0.756247-3.305006-4.598802-2.530363-2.411817 2.428168a32.483896 32.483896 0 0 0-5.068902-1.612647l-0.572295-3.323401-5.211976-0.592735-1.287665 3.141493c-1.77616 0.008176-3.546188 0.171689-5.293733 0.490539l-1.819081-2.896223-5.048464 1.487968v3.386762a30.474731 30.474731 0 0 0-4.721437 2.446563l-2.77972-2.039824-4.087825 3.264127 1.308104 3.121054c-1.246786 1.267226-2.387289 2.630515-3.413333 4.079649l-3.311138-0.735808-2.514012 4.590626 2.411817 2.38729c-0.684711 1.643305-1.226347 3.341796-1.614691 5.079122l-3.352016 0.551856-0.551856 5.199712 3.127185 1.308104c0 1.763896 0.159425 3.523705 0.4701 5.26103l-2.881916 1.814994 1.471617 5.038244H524.263473c0.682667 1.631042 1.502275 3.200766 2.452695 4.692822l-2.043913 2.773589 3.27026 4.079649 3.168064-1.326499a29.724615 29.724615 0 0 0 4.087824 3.407201l-0.715369 3.366324 4.598802 2.50788 2.391378-2.385246c1.645349 0.65814 3.339752 1.183425 5.068902 1.569725l0.592734 3.345884 5.211976 0.572295 1.267226-3.123097a33.217661 33.217661 0 0 0 5.395928-0.449661l1.819082 2.877828 5.028024-1.469573V544.702595c1.643305-0.690842 3.229381-1.508407 4.741876-2.448607l2.738842 2.039824 4.087825-3.284566-1.328543-3.121054a33.225836 33.225836 0 0 0 3.454211-4.079649l3.290699 0.735808 2.534451-4.590626-2.411816-2.366851c0.65814-1.641261 1.183425-3.331577 1.573812-5.058682l3.331577-0.590691z m-26.30515-2.039824a9.119936 9.119936 0 0 1-16.747816-1.808863 9.087234 9.087234 0 0 1 3.037253-9.647265 9.107673 9.107673 0 0 1 13.710563 11.454084z" fill="#407BFF" opacity=".3" p-id="2046"></path><path d="M616.832255 433.773349l-6.131736-4.202283a33.800176 33.800176 0 0 0-2.452695-6.32182l1.553374-6.119474-8.829701-9.444918-6.131737 1.142547a34.777166 34.777166 0 0 0-6.131736-2.877828l-3.781238-6.362699-12.937964-0.429221-4.210459 6.119473a32.57996 32.57996 0 0 0-6.336127 2.448607l-6.131737-1.571769-9.463313 8.833788 1.14459 6.119474a31.956567 31.956567 0 0 0-2.881916 6.119473l-6.356567 3.773061-0.44966 12.911394 6.131736 4.202283c0.592735 2.201293 1.416431 4.333094 2.452695 6.364743l-1.553373 6.119473 8.8297 9.442874 6.131737-1.120064a35.106236 35.106236 0 0 0 6.131736 2.875785l3.760799 6.344303 12.958403 0.449661 4.19002-6.121517a33.990259 33.990259 0 0 0 6.397445-2.446563l6.131736 1.549285 9.463314-8.811305-1.124152-6.119473a34.035226 34.035226 0 0 0 2.881916-6.119473l6.356567-3.773062 0.388343-12.974755z m-40.326387 19.623601a14.550611 14.550611 0 0 1-13.130092-9.422435 14.503601 14.503601 0 0 1 3.699481-15.709509 14.573094 14.573094 0 0 1 15.958867-2.6019 14.519952 14.519952 0 0 1 8.514938 13.720782c-0.288192 8.010092-7.01675 14.276727-15.043194 14.013062z" fill="#FFFFFF" p-id="2047"></path><path d="M661.205589 330.700902l1.062834-2.548758a13.694212 13.694212 0 0 0 2.043912-1.4103h2.370938l2.779721-4.077604-0.899321-2.182899a12.590499 12.590499 0 0 0 0.817565-2.264654l2.043912-1.876312-0.858443-4.792974-2.57533-1.062834a12.952271 12.952271 0 0 0-1.410299-2.037781v-2.36685l-3.985629-2.773589-2.207425 0.917717a11.364152 11.364152 0 0 0-2.493573-0.572296l-1.880399-2.03778-4.782755 0.856399-1.083273 2.569198c-0.758291 0.392431-1.477749 0.858443-2.146108 1.387816h-2.350499l-2.77972 4.079649 0.899321 2.182898a12.584367 12.584367 0 0 0-0.572295 2.487441l-2.043913 1.896751 0.858443 4.774579 2.57533 1.06079c0.388343 0.725589 0.856399 1.410299 1.38986 2.039824v2.344368l4.087824 2.775632 2.186986-0.899321c0.817565 0.265709 1.659657 0.449661 2.514012 0.551856l1.8804 2.039825 4.557924-1.060791z m-10.219561-13.21798a5.461333 5.461333 0 0 1 2.426124-5.573748 5.48586 5.48586 0 0 1 6.088814 0.108327 5.461333 5.461333 0 0 1-2.158371 9.872096 5.498124 5.498124 0 0 1-6.356567-4.406675z" fill="#2C6AEB" p-id="2048"></path><path d="M605.222834 317.176335l-1.573812-1.324455a40.653413 40.653413 0 0 1 12.263473-10.199122l0.960639 1.794555a38.550228 38.550228 0 0 0-11.6503 9.729022zM621.533253 305.571002l-0.797125-1.876311a48.978267 48.978267 0 0 1 23.995529-3.836424l-0.204392 2.039825a46.662515 46.662515 0 0 0-22.994012 3.67291zM617.670259 319.686259l-1.676008-1.142546a34.221222 34.221222 0 0 1 20.173414-13.034028l0.388343 2.039824a32.136431 32.136431 0 0 0-18.885749 12.13675z" fill="#407BFF" p-id="2049"></path><path d="M482.036248 516.081693a1.062834 1.062834 0 0 1-0.735809-0.327026l-4.271776-4.406675a35.811385 35.811385 0 0 1-6.438324-1.183425l-6.683592 2.939146a1.001517 1.001517 0 0 1-0.960639 0l-11.200639-7.405094a0.999473 0.999473 0 0 1-0.449661-0.878882v-7.259977a35.077621 35.077621 0 0 1-3.597285-5.467465l-5.743393-2.203337a1.021956 1.021956 0 0 1-0.633613-0.754204l-2.657086-13.136223a1.017868 1.017868 0 0 1 0.286148-0.9402l4.41485-4.261557c0.210523-2.170635 0.607042-4.32083 1.185469-6.426059l-2.943233-6.669286a0.997429 0.997429 0 0 1 0-0.960639l7.419401-11.176111a0.960639 0.960639 0 0 1 0.878882-0.449661l7.276327 0.102196c1.704623-1.369421 3.540056-2.575329 5.477685-3.58911l2.227864-5.733174a1.001517 1.001517 0 0 1 0.735809-0.633613l13.162794-2.650954a1.001517 1.001517 0 0 1 0.9402 0.286148l4.271776 4.406675c2.184942 0.198259 4.345357 0.592735 6.458763 1.183425l6.663153-2.939146a1.042395 1.042395 0 0 1 0.981078 0l11.1802 7.405094c0.286148 0.202347 0.461924 0.527329 0.4701 0.878882l-0.122635 7.259976c1.373509 1.706667 2.585549 3.535968 3.617724 5.467465l5.722955 2.223777a1.001517 1.001517 0 0 1 0.633612 0.733764l2.677525 13.136224a1.058747 1.058747 0 0 1-0.286147 0.940199l-4.43529 4.281996c-0.204391 2.166547-0.60091 4.308567-1.185469 6.405621l2.943234 6.669286c0.163513 0.306587 0.163513 0.674491 0 0.981077l-7.317206 11.073917a1.042395 1.042395 0 0 1-0.858443 0.44966l-7.296767-0.102195c-1.710754 1.35307-3.535968 2.55489-5.457245 3.591153l-2.227864 5.73113a1.001517 1.001517 0 0 1-0.756248 0.633613l-13.162794 2.773589h-0.204391z m-11.507226-8.159298a0.735808 0.735808 0 0 1 0.286148 0 34.112894 34.112894 0 0 0 6.765349 1.242699 1.144591 1.144591 0 0 1 0.654052 0.306587l4.087824 4.28404 12.059082-2.428168 2.166547-5.588056a1.124152 1.124152 0 0 1 0.490539-0.531417 32.810922 32.810922 0 0 0 5.743393-3.773062 0.960639 0.960639 0 0 1 0.674491-0.22483l7.092375 0.102195 6.785789-10.199122-2.861477-6.487377a1.017868 1.017868 0 0 1 0-0.692886c0.633613-2.205381 1.050571-4.465948 1.246786-6.751042a1.040351 1.040351 0 0 1 0.306587-0.654052l4.292216-4.079649-2.432256-12.034554-5.57988-2.162459a1.001517 1.001517 0 0 1-0.551856-0.490539 33.507896 33.507896 0 0 0-3.781238-5.73113 1.058747 1.058747 0 0 1-0.22483-0.652008v-7.098507l-10.219561-6.771481-6.479202 2.855345a1.064878 1.064878 0 0 1-0.715369 0 34.807824 34.807824 0 0 0-6.785788-1.244742 1.144591 1.144591 0 0 1-0.654052-0.306587l-4.087825-4.28404-12.059082 2.448607-2.146107 5.671856a1.042395 1.042395 0 0 1-0.4701 0.549812 32.586092 32.586092 0 0 0-5.763832 3.773062 0.878882 0.878882 0 0 1-0.654052 0.224831l-7.092376-0.102196-6.806227 10.199122 2.861477 6.487377a1.017868 1.017868 0 0 1 0 0.876838 34.879361 34.879361 0 0 0-1.185469 6.589573 1.019912 1.019912 0 0 1-0.306587 0.652008l-4.292216 4.079649 2.452695 12.034555 5.559441 2.162459a1.124152 1.124152 0 0 1 0.572296 0.531417 33.080719 33.080719 0 0 0 3.760798 5.690251c0.15125 0.183952 0.230962 0.414914 0.22483 0.654052v7.096463l10.219561 6.773525 6.499641-2.855345a1.062834 1.062834 0 0 1 0.347465-0.143074z m10.035609-6.610012a27.233086 27.233086 0 0 1-23.968958-14.327824 27.122715 27.122715 0 0 1 1.301972-27.856479c7.180263-10.84091 21.046164-15.096335 33.090938-10.154156 12.044774 4.94218 18.900056 17.700279 16.361517 30.44816-2.538539 12.74788-13.761661 21.920958-26.785469 21.890299z m-20.9501-41.062195c-7.683066 11.568543-4.515002 27.161549 7.07398 34.828263 11.588982 7.670802 27.214691 4.510914 34.8998-7.053541 7.68511-11.566499 4.523178-27.159505-7.06376-34.832351a25.119681 25.119681 0 0 0-18.928671-3.73014 25.078802 25.078802 0 0 0-15.981349 10.787769z" fill="#FFFFFF" p-id="2050"></path><path d="M871.381078 560.242459l-32.089421-4.322874 21.215808-158.72-61.889661-8.322811-150.125349 137.933414-7.889501 59.011832 129.359202 17.420263-6.458763 48.283338 61.889661 8.32281 6.458762-48.262898 32.089422 4.324918 7.43984-55.667992z m-162.327505-21.865772l79.222036-72.068344-10.873613 81.265948-68.348423-9.197604z" fill="#2C6AEB" p-id="2051"></path><path d="M806.589062 658.33798H806.323353a1.021956 1.021956 0 0 1-0.817565-1.181381L853.333333 396.179673a1.042395 1.042395 0 0 1 1.185469-0.817565 1.021956 1.021956 0 0 1 0.817565 1.185469l-47.725349 260.954443a1.042395 1.042395 0 0 1-1.021956 0.838004zM848.898044 400.565908a1.676008 1.676008 0 1 1-3.349972-0.126722 1.676008 1.676008 0 0 1 3.349972 0.126722zM842.091816 435.854052a1.676008 1.676008 0 1 1-3.345884-0.128767 1.676008 1.676008 0 0 1 3.345884 0.128767zM835.285589 471.203513a1.67192 1.67192 0 0 1-1.737326 1.612647 1.655569 1.655569 0 0 1-1.61469-1.712799 1.67192 1.67192 0 0 1 1.737325-1.633086c0.91976 0.044966 1.637174 0.815521 1.614691 1.735282zM821.877525 507.922395a1.676008 1.676008 0 1 1-3.329533-0.374036 1.676008 1.676008 0 0 1 3.329533 0.374036zM821.652695 541.722571a1.651481 1.651481 0 0 1-1.737326 1.610603 1.673964 1.673964 0 1 1 1.737326-1.610603zM814.846467 577.010715a1.67192 1.67192 0 0 1-2.896223 1.103712 1.669876 1.669876 0 0 1 1.281532-2.816511 1.676008 1.676008 0 0 1 1.614691 1.712799zM808.04024 612.300902a1.696447 1.696447 0 0 1-1.737326 1.631042 1.676008 1.676008 0 1 1 1.737326-1.631042zM801.213573 647.609485a1.676008 1.676008 0 1 1-1.614691-1.733237 1.655569 1.655569 0 0 1 1.614691 1.733237z" fill="#263238" p-id="2052"></path><path d="M820.201517 508.840112a1.001517 1.001517 0 0 1-0.981078-0.797126 1.017868 1.017868 0 0 1 0.776687-1.222259l5.068902-1.083274a1.021956 1.021956 0 1 1 0.429222 2.00099l-5.068903 1.08123-0.22483 0.020439zM837.145549 490.052471a173.258347 173.258347 0 0 0-6.131737 19.092184c-1.532934 7.200703-1.614691 23.31695-1.61469 23.31695" fill="#263238" p-id="2053"></path><path d="M829.399122 533.481517a1.062834 1.062834 0 0 1-1.021956-1.042395c0-0.652008 0.122635-16.316551 1.655569-23.496815a171.545549 171.545549 0 0 1 6.131736-19.255696 1.021956 1.021956 0 1 1 1.900838 0.733764 171.85418 171.85418 0 0 0-6.131736 18.94911c-1.492056 7.01675-1.594251 22.928607-1.614691 23.09212a1.021956 1.021956 0 0 1-0.91976 1.019912z" fill="#263238" p-id="2054"></path><path d="M132.874731 674.004567a19.672655 19.672655 0 0 1-14.981877-8.057102 1.017868 1.017868 0 0 1 0.739896-1.643305 1.021956 1.021956 0 0 1 0.936112 0.480319c3.822116 5.508343 12.263473 8.425006 15.942515 6.691769a2.657086 2.657086 0 0 0 0.960639-0.694931 12.34523 12.34523 0 0 1-7.194571-9.136287c-0.4701-2.591681-0.838004-6.121517 1.287665-6.569134 2.943234-0.654052 6.785788 6.424016 8.175648 11.789286 0.251401 0.889102 0.341333 1.814994 0.265709 2.73271 1.179337 0.351553 2.417948 0.449661 3.638164 0.286148a3.967234 3.967234 0 0 0 2.820599-1.508407 11.946667 11.946667 0 0 1-4.721438-8.547641c-0.776687-5.5901-0.183952-6.548695 0.429222-7.03719a1.351026 1.351026 0 0 1 1.410299-0.143073c2.186986 0.91976 4.823633 8.831745 5.334611 13.320175 0.061317 0.468056 0.061317 0.9402 0 1.408256 0.880926 0.337246 1.814994 0.51711 2.759282 0.531417a8.782691 8.782691 0 0 0 4.925828-1.287665c-0.286148-0.183952-0.551856-0.388343-0.817565-0.59069-2.043912-1.814994-2.984112-4.711218-2.616208-8.831745 0.286148-3.20281 1.001517-4.958531 2.289182-5.508343 0.848224-0.339289 1.819082-0.147162 2.473134 0.490539a14.096862 14.096862 0 0 1 3.535968 11.339624c-0.17782 0.848224-0.531417 1.647393-1.042395 2.346412 3.760798 0.654052 9.034092-0.408782 13.592016-1.528847a1.050571 1.050571 0 0 1 0.490539 2.039825c-5.539002 1.365333-11.507226 2.487441-15.717685 1.263137a11.646212 11.646212 0 0 1-7.153693 2.366851 9.890491 9.890491 0 0 1-3.352016-0.633613 5.722954 5.722954 0 0 1-4.333093 2.591681 10.914491 10.914491 0 0 1-4.578364-0.388344 4.515002 4.515002 0 0 1-2.043912 1.817038 8.516982 8.516982 0 0 1-3.454211 0.613174z m-1.757765-16.888846c-0.28206 1.385772-0.22483 2.820599 0.163513 4.181844a10.303361 10.303361 0 0 0 5.804711 7.546124 6.536431 6.536431 0 0 0-0.24527-1.426651c-1.594251-5.835369-4.66012-9.851657-5.722954-10.301317z m11.384591-1.77616c0.014307 1.408255 0.128766 2.812423 0.347465 4.202283a10.556806 10.556806 0 0 0 3.106746 6.569134 32.019928 32.019928 0 0 0-3.454211-10.771417z m12.856207-1.774116s-0.776687 0.388343-1.062834 3.793501c-0.286148 3.407202 0.306587 5.753613 1.900838 7.118946 0.378124 0.306587 0.78895 0.566164 1.226348 0.776687 0.537549-0.574339 0.917717-1.277445 1.103712-2.039825a12.749924 12.749924 0 0 0-2.432255-9.036135c-0.429222-0.531417-0.674491-0.613174-0.735809-0.613174zM468.812136 701.66483l5.539002-9.585948-5.539002-9.587992h-5.927346l3.352016 9.585948-3.352016 9.587992z" fill="#263238" p-id="2055"></path><path d="M463.273134 697.076248a5.009629 5.009629 0 0 1-4.60289-2.397509 4.987146 4.987146 0 0 1 0-5.181318 5.009629 5.009629 0 0 1 4.60289-2.397509l-9.401996-1.876311-2.514012 7.589046 4.210459 6.403577 7.705549-2.139976z" fill="#263238" p-id="2056"></path><path d="M464.090699 682.49089h-11.098444l-5.539002 9.585948 5.539002 9.587992h11.098444l5.539002-9.585948-5.539002-9.587992z m-5.539002 14.585358a5.007585 5.007585 0 0 1-4.639681-3.072 4.991234 4.991234 0 0 1 1.07101-5.453158 5.01576 5.01576 0 0 1 5.459289-1.091449 4.997365 4.997365 0 0 1-1.890618 9.616607zM875.591537 639.000527l-4.108264-7.118946 4.108264-7.118946h4.394411l-2.473134 7.118946 2.473134 7.118946z" fill="#2C6AEB" p-id="2057"></path><path d="M879.6998 635.595369c1.38986 0.102196 2.722491-0.580471 3.450124-1.767984a3.705613 3.705613 0 0 0 0-3.869126 3.721964 3.721964 0 0 0-3.450124-1.767984l6.99018-1.387816 1.85996 5.630978-3.106746 4.752096-5.743394-1.590164z" fill="#407BFF" p-id="2058"></path><path d="M879.107066 624.762635h8.175649l4.087824 7.118946-4.087824 7.118946h-8.175649l-4.087824-7.118946 4.087824-7.118946z m4.087824 10.832734a3.71992 3.71992 0 0 0 3.452168-2.278962 3.707657 3.707657 0 0 0-0.795082-4.051034 3.726052 3.726052 0 0 0-4.055122-0.815521 3.711745 3.711745 0 0 0-2.301445 3.433773 3.689261 3.689261 0 0 0 3.71992 3.711744h-0.020439zM711.85782 645.209932l-7.658539 5.156791a4.359665 4.359665 0 0 0-1.162986 6.04998 4.380104 4.380104 0 0 0 6.054068 1.187513l7.660583-5.154747a4.359665 4.359665 0 0 0 1.179337-6.0602 4.380104 4.380104 0 0 0-6.070419-1.179337z" fill="#263238" p-id="2059"></path><path d="M728.795721 643.750579a9.101541 9.101541 0 0 1-8.069366 9.865964 9.11176 9.11176 0 0 1-10.047872-7.852711 9.101541 9.101541 0 0 1 7.664671-10.18277 9.418347 9.418347 0 0 1 10.452567 8.169517z" fill="#2C6AEB" p-id="2060"></path><path d="M716.898108 635.117094l2.767457-0.425134 3.145581 20.361453-2.767457 0.427178z" fill="#263238" p-id="2061"></path><path d="M187.34499 334.796902c6.066331-1.970331 10.262483-4.688735 12.592543-8.155209 2.33006-3.464431 2.851257-7.17822 1.563593-11.14341-1.214084-3.732184-3.352016-6.301381-6.411753-7.705548-3.059737-1.404168-7.010619-2.092966-11.850603-2.066396l-4.096 0.014308c-1.334675 0.020439-2.37707-0.091976-3.127185-0.337246-0.750116-0.245269-1.238611-0.719457-1.465485-1.418475-0.288192-0.887058-0.03679-1.780248 0.752159-2.683657 0.790994-0.899321 2.23604-1.692359 4.333094-2.375025 2.054132-0.666315 4.024463-1.036263 5.906906-1.105757 1.886531-0.071537 3.450124 0.053142 4.688735 0.371992a9.177166 9.177166 0 0 0 1.312192-2.861477c0.280016-1.046483 0.222786-2.176766-0.171689-3.388806a5.334611 5.334611 0 0 0-2.08479-2.843082c-0.995385-0.682667-2.207425-1.113932-3.632032-1.295841-1.424607-0.181908-3.045429-0.13081-4.864511 0.149206-1.817038 0.28206-3.728096 0.748072-5.733174 1.40008-5.506299 1.788423-9.399952 4.36784-11.683002 7.740295s-2.779721 7.041277-1.492056 11.006467c0.668359 2.052088 1.571768 3.679042 2.710228 4.88495a11.445908 11.445908 0 0 0 4.026507 2.75315c1.547242 0.631569 3.278435 1.036263 5.191537 1.214084a81.184192 81.184192 0 0 0 6.293205 0.314762l3.255952 0.024527c1.506363 0.026571 2.710228 0.163513 3.617725 0.410827 0.903409 0.247313 1.508407 0.838004 1.810906 1.772072 0.304543 0.932024 0.102196 1.900838-0.602954 2.902355-0.70515 1.003561-2.201293 1.876311-4.488431 2.620295-2.238084 0.727633-4.42507 1.024-6.55687 0.891146-2.1318-0.13081-4.016287-0.498715-5.657549-1.101669-0.766467 0.817565-1.38986 1.831345-1.872224 3.04543s-0.504846 2.497661-0.063361 3.85073c0.42309 1.308104 1.185469 2.336192 2.278962 3.090395 1.095537 0.75216 2.442475 1.242699 4.03877 1.471617 1.594251 0.230962 3.372455 0.220743 5.328479-0.028615a33.74499 33.74499 0 0 0 6.152176-1.418475z m41.219577-13.393756c2.751106-0.89319 5.12-2.101142 7.100551-3.621813 1.982595-1.520671 3.527792-3.311138 4.635593-5.375489 1.109844-2.062307 1.741413-4.36784 1.892662-6.918642 0.15125-2.550802-0.245269-5.273293-1.185469-8.16543-0.878882-2.70614-2.125669-5.034156-3.738315-6.986091-1.614691-1.951936-3.478739-3.446036-5.596232-4.486388-2.117493-1.040351-4.435289-1.626954-6.955433-1.763896-2.520144-0.134898-5.15679 0.245269-7.90994 1.138459-2.751106 0.895234-5.10978 2.125669-7.078068 3.69335-1.966244 1.567681-3.501222 3.392894-4.60289 5.477684-1.101669 2.086834-1.731194 4.394411-1.890619 6.920687-0.157381 2.528319 0.210523 5.169054 1.103713 7.92016 0.909541 2.80016 2.170635 5.175186 3.785325 7.127121 1.614691 1.949892 3.480782 3.446036 5.596232 4.486388 2.117493 1.040351 4.433246 1.614691 6.945213 1.727105 2.514012 0.112415 5.144527-0.277972 7.897677-1.173205z m-2.955497-9.328415c-1.958068 0.635657-3.732184 0.374036-5.322347-0.786907-1.58812-1.158898-2.845126-3.161932-3.771018-6.009101-0.907497-2.798116-1.073054-5.13022-0.492583-6.994268 0.580471-1.866092 1.849741-3.116966 3.809852-3.752623 1.960112-0.637701 3.71992-0.371992 5.287601 0.797126 1.565637 1.16503 2.802204 3.149669 3.711744 5.947785 0.909541 2.80016 1.089405 5.140439 0.541637 7.020838-0.551856 1.880399-1.804774 3.139449-3.764886 3.77715z m33.493589-1.21204c1.073054-0.347465 2.088878-0.756248 3.045429-1.22226 0.958595-0.466012 1.647393-0.844136 2.068439-1.136415l-7.752559-23.862675c0.515066-0.476232 1.169118-0.960639 1.9642-1.451177 0.797126-0.490539 1.653525-0.98721 2.571241-1.492056a34.948854 34.948854 0 0 1 5.835369-2.514012c0.114459-0.607042 0.163513-1.252918 0.143074-1.943761a7.086244 7.086244 0 0 0-0.343377-2.015297c-0.637701-1.960112-1.749589-3.157844-3.335665-3.597286-1.586076-0.439441-3.499178-0.294323-5.739305 0.43331-1.35307 0.439441-2.671393 0.983122-3.957014 1.63513-1.283577 0.64792-2.495617 1.363289-3.634076 2.146107a29.984192 29.984192 0 0 0-3.112878 2.442475 13.003369 13.003369 0 0 0-2.229908 2.542627 6.826667 6.826667 0 0 0-1.042395 2.62234c-0.149206 0.899321-0.04701 1.884487 0.300455 2.95754l6.822578 20.993022c0.378124 1.167074 0.838004 2.064351 1.375553 2.687745 0.537549 0.623393 1.15481 1.054659 1.851785 1.293796 0.69493 0.237094 1.475705 0.294323 2.336191 0.167601a17.305804 17.305804 0 0 0 2.832863-0.686754z m28.062914-9.117893c1.073054-0.347465 2.086834-0.756248 3.045429-1.222259 0.956551-0.466012 1.647393-0.844136 2.068439-1.136415l-7.754603-23.862675c0.515066-0.476232 1.171162-0.960639 1.966244-1.451178s1.651481-0.98721 2.571241-1.492055a34.948854 34.948854 0 0 1 5.83537-2.514012c0.114459-0.607042 0.161469-1.252918 0.143073-1.943761a7.086244 7.086244 0 0 0-0.345421-2.015297c-0.635657-1.960112-1.747545-3.157844-3.335664-3.597286-1.586076-0.439441-3.499178-0.294323-5.739306 0.43331-1.35307 0.439441-2.671393 0.983122-3.95497 1.635129-1.285621 0.64792-2.497661 1.363289-3.63612 2.146108a29.984192 29.984192 0 0 0-3.112878 2.442475 13.003369 13.003369 0 0 0-2.227864 2.542627 6.826667 6.826667 0 0 0-1.044439 2.622339c-0.147162 0.899321-0.04701 1.884487 0.302499 2.957541l6.820535 20.993022c0.380168 1.167074 0.838004 2.064351 1.375553 2.687745 0.539593 0.623393 1.156854 1.054659 1.851784 1.293796 0.696974 0.237094 1.475705 0.294323 2.338236 0.167601a17.305804 17.305804 0 0 0 2.832862-0.686755z m36.381637 1.252919a11.883305 11.883305 0 0 0 3.072-1.500232c0.927936-0.637701 1.772072-1.53089 2.534451-2.679569 0.760335-1.150723 1.465485-2.630515 2.115449-4.441421 0.649964-1.808862 1.257006-4.069429 1.819082-6.779657 0.353597-1.610603 0.674491-3.405158 0.960638-5.379577 0.286148-1.976463 0.515066-4.04899 0.686755-6.219624 0.171689-2.170635 0.296367-4.363752 0.37608-6.581397 0.079713-2.217645 0.081756-4.347401 0.014307-6.387226a67.318291 67.318291 0 0 0-0.42309-5.704559c-0.210523-1.761852-0.521198-3.274347-0.92998-4.533397-0.562076-1.727106-1.492056-2.765413-2.791984-3.114922-1.301972-0.351553-2.767457-0.261621-4.400543 0.267752a12.261429 12.261429 0 0 0-5.097517 3.127186c0.296367 2.017341 0.543681 4.089868 0.743984 6.217581 0.202347 2.125669 0.367904 4.265645 0.498715 6.413796 0.13081 2.150196 0.230962 4.245206 0.302499 6.28503 0.069493 2.039824 0.081756 3.94475 0.03679 5.712735l-0.280016 0.091976-11.781109-17.448879c-1.120064-1.698491-2.325972-2.712271-3.617725-3.041341-1.293796-0.327026-2.755194-0.22483-4.388279 0.306587a9.183297 9.183297 0 0 0-3.366324 1.904926c-0.936112 0.84618-1.62491 1.700535-2.066395 2.567154 1.761852 2.881916 3.372455 5.416367 4.827721 7.597221a139.378459 139.378459 0 0 0 4.040814 5.76792 97.255473 97.255473 0 0 0 3.433772 4.376016 144.218443 144.218443 0 0 0 2.918707 3.384719c1.845653 2.031649 3.364279 3.331577 4.553836 3.89774 1.189557 0.568208 2.219689 0.838004 3.088352 0.815521a49.401357 49.401357 0 0 1-2.636647 5.692296 63.547273 63.547273 0 0 1-3.217118 5.338698c0.838004 1.790467 2.054132 3.072 3.646339 3.842555 1.592208 0.772599 3.368367 0.842092 5.326436 0.204392z m37.36067-41.460759l-10.033565-36.353022-8.747944 2.841038 13.252727 35.308583 5.528782-1.798643z m1.792511 15.045238a5.76792 5.76792 0 0 0 3.253908-2.603945c0.662228-1.297884 0.756248-2.671393 0.286148-4.116439-0.482363-1.492056-1.359202-2.524232-2.626427-3.092439-1.236567-0.629525-2.624383-0.69493-4.165493-0.194171-1.445046 0.4701-2.483353 1.322411-3.112878 2.558978-0.737852 1.220216-0.864575 2.575329-0.380168 4.069429a4.993277 4.993277 0 0 0 2.697964 3.067912 5.10978 5.10978 0 0 0 4.046946 0.310675z" fill="#263238" p-id="2062"></path></svg>