<?xml version="1.0" standalone="no"?><!DOCTYPE svg PUBLIC "-//W3C//DTD SVG 1.1//EN" "http://www.w3.org/Graphics/SVG/1.1/DTD/svg11.dtd"><svg t="1739931300589" class="icon" viewBox="0 0 1238 1024" version="1.1" xmlns="http://www.w3.org/2000/svg" p-id="2203" xmlns:xlink="http://www.w3.org/1999/xlink" width="241.796875" height="200"><path d="M916.303777 885.898121m-40.078884 0a40.078884 40.078884 0 1 0 80.157767 0 40.078884 40.078884 0 1 0-80.157767 0Z" fill="#AFCEF2" fill-opacity=".6" p-id="2204"></path><path d="M26.257265 551.44067m-26.257265 0a26.257265 26.257265 0 1 0 52.51453 0 26.257265 26.257265 0 1 0-52.51453 0Z" fill="#AFCEF2" fill-opacity=".6" p-id="2205"></path><path d="M1187.187498 421.526028m-17.965247 0a17.965247 17.965247 0 1 0 35.930493 0 17.965247 17.965247 0 1 0-35.930493 0Z" fill="#AFCEF2" fill-opacity=".6" p-id="2206"></path><path d="M1014.431553 997.847516m-19.351218 0a19.351219 19.351219 0 1 0 38.702437 0 19.351219 19.351219 0 1 0-38.702437 0Z" fill="#AFCEF2" fill-opacity=".6" p-id="2207"></path><path d="M1212.068316 330.313823m-26.257265 0a26.257265 26.257265 0 1 0 52.51453 0 26.257265 26.257265 0 1 0-52.51453 0Z" fill="#AFCEF2" fill-opacity=".6" p-id="2208"></path><path d="M66.340912 475.42653m-13.821619 0a13.821619 13.821619 0 1 0 27.643237 0 13.821619 13.821619 0 1 0-27.643237 0Z" fill="#AFCEF2" fill-opacity=".6" p-id="2209"></path><path d="M176.904335 845.819237m-11.054437 0a11.054437 11.054437 0 1 0 22.108874 0 11.054437 11.054437 0 1 0-22.108874 0Z" fill="#AFCEF2" fill-opacity=".6" p-id="2210"></path><path d="M429.822809 15.202828m-15.202828 0a15.202828 15.202828 0 1 0 30.405656 0 15.202828 15.202828 0 1 0-30.405656 0Z" fill="#AFCEF2" fill-opacity=".6" p-id="2211"></path><path d="M843.747423 839.365656l-150.123163 150.123163c-44.641637 44.641637-117.017005 44.641637-161.653879 0L420.544893 878.068093H255.680893a23.494847 23.494847 0 1 1 0-46.989693h117.874307l-44.227274-44.222512H134.05827a23.494847 23.494847 0 1 1 0-46.989693H282.338233L144.403051 601.921488c-44.641637-44.641637-44.641637-117.017005 0-161.658641L262.191628 322.479033h134.453581a23.494847 23.494847 0 1 0 0-46.989693H309.186084l216.921302-216.926066c44.636874-44.636874 117.012242-44.636874 161.649116 0L896.395312 267.192558h202.347162a23.494847 23.494847 0 1 1 0 46.994456h-155.357469l131.948353 131.948353c44.641637 44.636874 44.641637 117.012242 0 161.649117l-184.591479 184.591479h-112.64a23.494847 23.494847 0 1 0 0 46.989693h65.650307z m50.447479-674.444503h320.635833a23.494847 23.494847 0 1 1 0 46.989694h-320.635833a23.494847 23.494847 0 1 1 0-46.989694z" fill="#C3DAF5" fill-opacity=".6" p-id="2212"></path><path d="M598.397023 492.262995c128.309581 0 217.754791-32.39174 217.754791-72.308688v-43.469991c0-40.016967-89.445209-72.303926-217.754791-72.303925-128.319107 0-203.237805 32.386977-203.237804 72.303925v43.469991c0 39.912186 75.023479 72.308688 203.233041 72.308688z m-30.934325 180.976521c-88.083051-3.238698-135.001302-31.243907-161.958698-57.991739-6.896521 6.79174-10.24 14.102623-10.24 21.732614v57.886958c0 40.02173 75.023479 72.308688 203.233042 72.308688 12.854772 0 25.290419-0.314344 37.616521-1.047814-33.020428-23.613916-61.125656-51.509581-68.650865-92.888707z m1.986083-36.992595c0-38.245209 13.793042-73.346977 36.468689-100.728261h-8.253917c-103.971721 0-162.587386-21.313488-192.264334-50.676093-6.896521 6.79174-10.24 14.107386-10.24 21.732614v57.886959c0 36.887814 63.845209 67.298233 174.289562 71.784781z" fill="#2C73D2" opacity=".7" p-id="2213"></path><path d="M727.53533 766.180614c-70.603609 0-127.718995-57.024893-127.718995-127.404651 0-70.389284 57.115386-127.414177 127.718995-127.414177 70.608372 0 127.723758 57.024893 127.723758 127.409414 0 70.232112-57.115386 127.409414-127.723758 127.409414z m23.718698-126.452093l50.766586-50.771349a16.312558 16.312558 0 1 0-23.070958-23.061432l-50.771349 50.761823-50.761823-50.761823a16.312558 16.312558 0 0 0-23.070958 23.066195l50.771348 50.766586-50.771348 50.771349a16.312558 16.312558 0 0 0 23.066195 23.066195l50.771349-50.771349 50.766586 50.771349a16.26493 16.26493 0 0 0 11.535479 4.777079 16.312558 16.312558 0 0 0 11.535479-27.848037l-50.771349-50.766586z" fill="#08E7CF" p-id="2214"></path></svg>